<?xml version="1.0" encoding="UTF-8"?>
<svg xmlns="http://www.w3.org/2000/svg" xmlns:xlink="http://www.w3.org/1999/xlink" width="192px" height="192px" viewBox="0 0 192 192" version="1.1">
<defs>
<linearGradient id="linear0" gradientUnits="userSpaceOnUse" x1="0" y1="0" x2="1" y2="0" gradientTransform="matrix(166.276878,96,-96,166.276878,60.861561,-35.138439)">
<stop offset="0" style="stop-color:rgb(98.039216%,87.843138%,75.294119%);stop-opacity:1;"/>
<stop offset="1" style="stop-color:rgb(95.294118%,55.29412%,37.64706%);stop-opacity:1;"/>
</linearGradient>
</defs>
<g id="surface1">
<rect x="0" y="0" width="192" height="192" style="fill:url(#linear0);stroke:none;"/>
<path style="fill-rule:nonzero;fill:rgb(17.254902%,19.215687%,24.313726%);fill-opacity:1;stroke-width:0.2;stroke-linecap:butt;stroke-linejoin:miter;stroke:rgb(45.09804%,31.764707%,37.254903%);stroke-opacity:1;stroke-miterlimit:4;" d="M 4.949978 -0.000793966 L 1.649937 -0.000793966 L 1.649937 -8.280376 L 0.12052 -8.280376 L 0.12052 -10.569143 L 1.649937 -10.569143 L 1.649937 -11.41068 C 1.649937 -12.609558 2.003705 -13.544003 2.709452 -14.210444 C 3.424134 -14.876884 4.419327 -15.209211 5.700393 -15.209211 C 6.17387 -15.209211 6.690227 -15.139529 7.249465 -15.000167 L 7.260185 -12.579184 C 7.052928 -12.639932 6.783135 -12.670306 6.450809 -12.670306 C 5.450255 -12.670306 4.949978 -12.23971 4.949978 -11.380306 L 4.949978 -10.569143 L 7.010047 -10.569143 L 7.010047 -8.280376 L 4.949978 -8.280376 Z M 17.410445 -0.000793966 L 14.119338 -0.000793966 C 14.006776 -0.213412 13.903147 -0.529658 13.810239 -0.949533 C 13.20276 -0.183038 12.355862 0.199317 11.269547 0.199317 C 10.27614 0.199317 9.429243 -0.102636 8.730642 -0.710115 C 8.037401 -1.310447 7.690781 -2.066223 7.690781 -2.979228 C 7.690781 -4.126291 8.112443 -4.992842 8.95934 -5.580668 C 9.800877 -6.166706 11.030129 -6.459726 12.650668 -6.459726 L 13.660156 -6.459726 L 13.660156 -7.01003 C 13.660156 -7.983783 13.24028 -8.469767 12.40053 -8.469767 C 11.619741 -8.469767 11.230239 -8.083839 11.230239 -7.310196 L 7.939132 -7.310196 C 7.939132 -8.337551 8.373301 -9.166581 9.239852 -9.80086 C 10.11355 -10.4405 11.223093 -10.76032 12.570267 -10.76032 C 13.917441 -10.76032 14.980529 -10.433353 15.759532 -9.77942 C 16.540321 -9.120127 16.940543 -8.216055 16.960196 -7.070778 L 16.960196 -2.389616 C 16.972703 -1.42301 17.122786 -0.683315 17.410445 -0.170531 Z M 12.05927 -2.150198 C 12.473785 -2.150198 12.813258 -2.23596 13.079477 -2.40927 C 13.352843 -2.589727 13.545807 -2.789838 13.660156 -3.009602 L 13.660156 -4.699823 L 12.70963 -4.699823 C 11.562566 -4.699823 10.990821 -4.183466 10.990821 -3.150752 C 10.990821 -2.855946 11.090877 -2.616527 11.289201 -2.43071 C 11.489311 -2.243106 11.746597 -2.150198 12.05927 -2.150198 Z M 24.319626 -2.970295 C 24.319626 -3.250807 24.173117 -3.474145 23.880097 -3.640308 C 23.587078 -3.813618 23.029627 -3.990502 22.20953 -4.169172 C 21.389433 -4.349629 20.71406 -4.590834 20.179835 -4.889214 C 19.647398 -5.18402 19.240029 -5.543147 18.959517 -5.970169 C 18.680791 -6.390044 18.539642 -6.872454 18.539642 -7.419185 C 18.539642 -8.392938 18.939863 -9.193381 19.740306 -9.820514 C 20.540749 -10.44586 21.585971 -10.76032 22.879544 -10.76032 C 24.273172 -10.76032 25.393435 -10.444074 26.240332 -9.809794 C 27.087229 -9.182661 27.510678 -8.353631 27.510678 -7.31913 L 24.210637 -7.31913 C 24.210637 -8.166027 23.763962 -8.589476 22.87061 -8.589476 C 22.52399 -8.589476 22.232757 -8.496567 22.000486 -8.31075 C 21.766428 -8.115999 21.650292 -7.876581 21.650292 -7.590709 C 21.650292 -7.295903 21.793228 -7.060058 22.080887 -6.879601 C 22.36676 -6.693784 22.824156 -6.543701 23.449502 -6.429352 C 24.076635 -6.309643 24.630513 -6.17028 25.109349 -6.009477 C 26.695942 -5.462745 27.489238 -4.483632 27.489238 -3.07035 C 27.489238 -2.103744 27.064002 -1.315807 26.209958 -0.710115 C 25.350554 -0.102636 24.239225 0.199317 22.879544 0.199317 C 21.973685 0.199317 21.166095 0.0367268 20.460348 -0.29024 C 19.747453 -0.617207 19.193575 -1.060309 18.800501 -1.619547 C 18.400279 -2.180572 18.200168 -2.770184 18.200168 -3.39017 L 21.280444 -3.39017 C 21.292951 -2.904187 21.457328 -2.546846 21.770001 -2.319935 C 22.082674 -2.093023 22.482896 -1.980461 22.970666 -1.980461 C 23.417341 -1.980461 23.753242 -2.07337 23.980153 -2.259187 C 24.207064 -2.439644 24.319626 -2.677275 24.319626 -2.970295 Z M 29.570747 -13.190236 L 32.860067 -13.190236 L 32.860067 -10.569143 L 34.600316 -10.569143 L 34.600316 -8.280376 L 32.860067 -8.280376 L 32.860067 -3.449131 C 32.860067 -3.050696 32.933322 -2.773757 33.079832 -2.620101 C 33.219195 -2.459297 33.50328 -2.380683 33.930302 -2.380683 C 34.250122 -2.380683 34.523488 -2.400336 34.750399 -2.439644 L 34.750399 -0.0901291 C 34.157214 0.102835 33.537228 0.199317 32.890441 0.199317 C 31.755885 0.199317 30.919708 -0.0704754 30.380123 -0.61006 C 29.840539 -1.142497 29.570747 -1.95366 29.570747 -3.039976 L 29.570747 -8.280376 L 28.219999 -8.280376 L 28.219999 -10.569143 L 29.570747 -10.569143 Z M 35.200648 -4.819532 L 35.189928 -5.380557 C 35.189928 -6.432925 35.393612 -7.372731 35.799194 -8.199975 C 36.213709 -9.020071 36.803321 -9.652564 37.569817 -10.09924 C 38.336312 -10.540556 39.236811 -10.76032 40.269525 -10.76032 C 41.856117 -10.76032 43.103236 -10.270763 44.010881 -9.289863 C 44.923887 -8.31075 45.379496 -6.976083 45.379496 -5.289435 L 45.379496 -5.180446 C 45.379496 -3.533106 44.923887 -2.223453 44.010881 -1.249699 C 43.096089 -0.283093 41.856117 0.199317 40.289179 0.199317 C 38.790135 0.199317 37.58411 -0.252719 36.669318 -1.160364 C 35.756313 -2.060863 35.266756 -3.279394 35.200648 -4.819532 Z M 38.489969 -5.770058 L 38.479248 -5.180446 C 38.479248 -4.199546 38.632905 -3.483078 38.940218 -3.029256 C 39.240384 -2.570073 39.690633 -2.339588 40.289179 -2.339588 C 41.463043 -2.339588 42.063375 -3.24366 42.090175 -5.050017 L 42.090175 -5.380557 C 42.090175 -7.272676 41.482696 -8.219628 40.269525 -8.219628 C 39.170703 -8.219628 38.577517 -7.403105 38.489969 -5.770058 Z M 53.280297 -10.640611 L 53.219549 -7.590709 L 52.14038 -7.669324 C 51.105879 -7.669324 50.443012 -7.344144 50.149993 -6.69021 L 50.149993 -0.000793966 L 46.860673 -0.000793966 L 46.860673 -10.569143 L 49.939162 -10.569143 L 50.049938 -9.209462 C 50.603816 -10.243963 51.373885 -10.76032 52.360145 -10.76032 C 52.713912 -10.76032 53.019438 -10.719226 53.280297 -10.640611 Z M 54.759687 -3.190059 C 55.279618 -3.190059 55.710213 -3.036403 56.049687 -2.730876 C 56.396307 -2.423563 56.569617 -2.026915 56.569617 -1.539145 C 56.569617 -1.060309 56.396307 -0.667234 56.049687 -0.359921 C 55.710213 -0.0472482 55.279618 0.109982 54.759687 0.109982 C 54.22725 0.109982 53.789507 -0.0472482 53.450034 -0.359921 C 53.11056 -0.672594 52.940823 -1.067456 52.940823 -1.539145 C 52.940823 -2.019768 53.11056 -2.412843 53.450034 -2.720156 C 53.789507 -3.032829 54.22725 -3.190059 54.759687 -3.190059 Z M 68.009877 -0.000793966 L 64.720557 -0.000793966 C 64.600848 -0.213412 64.493646 -0.529658 64.400737 -0.949533 C 63.800405 -0.183038 62.957081 0.199317 61.870766 0.199317 C 60.870212 0.199317 60.023315 -0.102636 59.330074 -0.710115 C 58.629686 -1.310447 58.279492 -2.066223 58.279492 -2.979228 C 58.279492 -4.126291 58.702941 -4.992842 59.549838 -5.580668 C 60.396735 -6.166706 61.625987 -6.459726 63.23938 -6.459726 L 64.259588 -6.459726 L 64.259588 -7.01003 C 64.259588 -7.983783 63.839712 -8.469767 62.999962 -8.469767 C 62.219173 -8.469767 61.829671 -8.083839 61.829671 -7.310196 L 58.540351 -7.310196 C 58.540351 -8.337551 58.972733 -9.166581 59.839284 -9.80086 C 60.705835 -10.4405 61.813591 -10.76032 63.160765 -10.76032 C 64.513299 -10.76032 65.579961 -10.433353 66.36075 -9.77942 C 67.139753 -9.120127 67.539974 -8.216055 67.559628 -7.070778 L 67.559628 -2.389616 C 67.573922 -1.42301 67.724005 -0.683315 68.009877 -0.170531 Z M 62.660488 -2.150198 C 63.06607 -2.150198 63.40733 -2.23596 63.680696 -2.40927 C 63.946915 -2.589727 64.139878 -2.789838 64.259588 -3.009602 L 64.259588 -4.699823 L 63.300128 -4.699823 C 62.153065 -4.699823 61.579533 -4.183466 61.579533 -3.150752 C 61.579533 -2.855946 61.679588 -2.616527 61.879699 -2.43071 C 62.086957 -2.243106 62.346029 -2.150198 62.660488 -2.150198 Z M 72.850056 -10.569143 L 72.850056 -0.000793966 L 69.550015 -0.000793966 L 69.550015 -10.569143 Z M 69.360625 -13.290292 C 69.360625 -13.756621 69.526788 -14.140762 69.859115 -14.439142 C 70.200375 -14.739308 70.639904 -14.889391 71.179489 -14.889391 C 71.72086 -14.889391 72.160389 -14.739308 72.499862 -14.439142 C 72.839336 -14.140762 73.010859 -13.756621 73.010859 -13.290292 C 73.010859 -12.823962 72.839336 -12.439821 72.499862 -12.139655 C 72.160389 -11.839489 71.72086 -11.689406 71.179489 -11.689406 C 70.639904 -11.689406 70.200375 -11.839489 69.859115 -12.139655 C 69.526788 -12.439821 69.360625 -12.823962 69.360625 -13.290292 Z M 69.360625 -13.290292 " transform="matrix(2.186289,0,0,2.186289,16.060728,112.407986)"/>
</g>
</svg>
