<?xml version="1.0" encoding="UTF-8"?>
<svg xmlns="http://www.w3.org/2000/svg" xmlns:xlink="http://www.w3.org/1999/xlink" width="512px" height="512px" viewBox="0 0 512 512" version="1.1">
<defs>
<linearGradient id="linear0" gradientUnits="userSpaceOnUse" x1="0" y1="0" x2="1" y2="0" gradientTransform="matrix(443.405007,256,-256,443.405007,162.297497,-93.702503)">
<stop offset="0" style="stop-color:rgb(98.039216%,87.843138%,75.294119%);stop-opacity:1;"/>
<stop offset="1" style="stop-color:rgb(95.294118%,55.29412%,37.64706%);stop-opacity:1;"/>
</linearGradient>
</defs>
<g id="surface1">
<rect x="0" y="0" width="512" height="512" style="fill:url(#linear0);stroke:none;"/>
<path style="fill-rule:nonzero;fill:rgb(17.254902%,19.215687%,24.313726%);fill-opacity:1;stroke-width:0.2;stroke-linecap:butt;stroke-linejoin:miter;stroke:rgb(45.09804%,31.764707%,37.254903%);stroke-opacity:1;stroke-miterlimit:4;" d="M 4.949978 -0.000123953 L 1.650161 -0.000123953 L 1.650161 -8.280153 L 0.11985 -8.280153 L 0.11985 -10.57026 L 1.650161 -10.57026 L 1.650161 -11.409787 C 1.650161 -12.609781 2.003258 -13.54311 2.710122 -14.209774 C 3.423017 -14.876437 4.419997 -15.210104 5.699723 -15.210104 C 6.173423 -15.210104 6.690004 -15.139753 7.250135 -14.99972 L 7.260185 -12.580301 C 7.053151 -12.639932 6.783135 -12.670082 6.450139 -12.670082 C 5.449808 -12.670082 4.949978 -12.239934 4.949978 -11.380306 L 4.949978 -10.57026 L 7.01027 -10.57026 L 7.01027 -8.280153 L 4.949978 -8.280153 Z M 17.410222 -0.000123953 L 14.119785 -0.000123953 C 14.006553 -0.213188 13.903371 -0.530105 13.810239 -0.950203 C 13.203206 -0.183038 12.356979 0.20021 11.270217 0.20021 C 10.276587 0.20021 9.429689 -0.103306 8.730195 -0.709668 C 8.036731 -1.310001 7.690334 -2.066446 7.690334 -2.979675 C 7.690334 -4.126738 8.113113 -4.993066 8.96001 -5.579998 C 9.800207 -6.16693 11.029682 -6.459726 12.649775 -6.459726 L 13.660156 -6.459726 L 13.660156 -7.009807 C 13.660156 -7.983337 13.240057 -8.469767 12.39986 -8.469767 C 11.619964 -8.469767 11.230016 -8.083169 11.230016 -7.309973 L 7.940249 -7.309973 C 7.940249 -8.336434 8.373078 -9.166581 9.240076 -9.799744 C 10.113103 -10.440277 11.223316 -10.759873 12.570043 -10.759873 C 13.916771 -10.759873 14.980083 -10.433577 15.759978 -9.780313 C 16.539874 -9.11968 16.939873 -8.216502 16.959973 -7.070108 L 16.959973 -2.390063 C 16.973373 -1.423233 17.123456 -0.683538 17.410222 -0.170307 Z M 12.060163 -2.150198 C 12.473561 -2.150198 12.813258 -2.23663 13.079924 -2.410163 C 13.353289 -2.589727 13.546923 -2.790061 13.660156 -3.009825 L 13.660156 -4.70027 L 12.710076 -4.70027 C 11.563013 -4.70027 10.990151 -4.183019 10.990151 -3.149858 C 10.990151 -2.856392 11.089983 -2.616527 11.290317 -2.430264 C 11.489981 -2.24333 11.746597 -2.150198 12.060163 -2.150198 Z M 24.320073 -2.970295 C 24.320073 -3.24969 24.17334 -3.473475 23.879874 -3.640308 C 23.586408 -3.813172 23.030297 -3.990055 22.2102 -4.170289 C 21.390103 -4.349853 20.71339 -4.589718 20.180059 -4.889884 C 19.646728 -5.18335 19.240029 -5.543147 18.959964 -5.969946 C 18.679898 -6.390044 18.539865 -6.873124 18.539865 -7.419855 C 18.539865 -8.393385 18.939863 -9.193381 19.73986 -9.819844 C 20.539856 -10.446977 21.586417 -10.759873 22.880214 -10.759873 C 24.273172 -10.759873 25.393435 -10.443627 26.240332 -9.809794 C 27.086559 -9.183331 27.510008 -8.353184 27.510008 -7.320023 L 24.210191 -7.320023 C 24.210191 -8.166921 23.763292 -8.589699 22.870163 -8.589699 C 22.523096 -8.589699 22.233651 -8.496567 21.999816 -8.310303 C 21.766651 -8.116669 21.650069 -7.876805 21.650069 -7.590039 C 21.650069 -7.296573 21.793452 -7.060058 22.080217 -6.879824 C 22.366983 -6.69356 22.823263 -6.543477 23.449725 -6.430245 C 24.076858 -6.310313 24.630289 -6.17028 25.110019 -6.010147 C 26.696612 -5.463415 27.489908 -4.483185 27.489908 -3.070127 C 27.489908 -2.103297 27.063109 -1.316701 26.210182 -0.709668 C 25.349884 -0.103306 24.239671 0.20021 22.880214 0.20021 C 21.973015 0.20021 21.166989 0.0367268 20.460124 -0.29024 C 19.74656 -0.616537 19.193129 -1.060086 18.79983 -1.620217 C 18.399832 -2.179678 18.200168 -2.76996 18.200168 -3.389723 L 21.280221 -3.389723 C 21.293621 -2.903293 21.456435 -2.546846 21.770001 -2.319711 C 22.083567 -2.093247 22.483566 -1.980014 22.969996 -1.980014 C 23.416895 -1.980014 23.753242 -2.073146 23.979706 -2.26008 C 24.206841 -2.440314 24.320073 -2.676829 24.320073 -2.970295 Z M 29.5703 -13.190013 L 32.860067 -13.190013 L 32.860067 -10.57026 L 34.600093 -10.57026 L 34.600093 -8.280153 L 32.860067 -8.280153 L 32.860067 -3.450024 C 32.860067 -3.050026 32.933099 -2.773311 33.079832 -2.619877 C 33.219865 -2.459744 33.50328 -2.380012 33.930079 -2.380012 C 34.249676 -2.380012 34.523041 -2.400113 34.750176 -2.440314 L 34.750176 -0.0899058 C 34.156544 0.103058 33.536781 0.20021 32.890218 0.20021 C 31.756555 0.20021 30.919708 -0.0698054 30.379677 -0.609836 C 29.840316 -1.143167 29.5703 -1.953214 29.5703 -3.039976 L 29.5703 -8.280153 L 28.220223 -8.280153 L 28.220223 -10.57026 L 29.5703 -10.57026 Z M 35.199755 -4.820202 L 35.189705 -5.380334 C 35.189705 -6.433595 35.393389 -7.373624 35.800087 -8.199751 C 36.213486 -9.019848 36.803098 -9.653011 37.570263 -10.09991 C 38.336759 -10.540109 39.236587 -10.759873 40.269748 -10.759873 C 41.856341 -10.759873 43.103236 -10.270093 44.009765 -9.289863 C 44.923663 -8.310303 45.379943 -6.976976 45.379943 -5.289882 L 45.379943 -5.18 C 45.379943 -3.533106 44.923663 -2.223229 44.009765 -1.249699 C 43.096536 -0.28354 41.856341 0.20021 40.289849 0.20021 C 38.789688 0.20021 37.583664 -0.253389 36.669765 -1.159918 C 35.756536 -2.059746 35.266756 -3.279841 35.199755 -4.820202 Z M 38.490192 -5.770282 L 38.480142 -5.18 C 38.480142 -4.19977 38.633575 -3.483525 38.939771 -3.029926 C 39.239937 -2.570296 39.690187 -2.339812 40.289849 -2.339812 C 41.463043 -2.339812 42.063375 -3.24366 42.090175 -5.050017 L 42.090175 -5.380334 C 42.090175 -7.273122 41.483143 -8.219852 40.269748 -8.219852 C 39.170256 -8.219852 38.576624 -7.403105 38.490192 -5.770282 Z M 53.280074 -10.639941 L 53.219772 -7.590039 L 52.13971 -7.66977 C 51.106549 -7.66977 50.443236 -7.343474 50.14977 -6.69021 L 50.14977 -0.000123953 L 46.860003 -0.000123953 L 46.860003 -10.57026 L 49.940056 -10.57026 L 50.049938 -9.210132 C 50.603369 -10.243293 51.373215 -10.759873 52.360145 -10.759873 C 52.713242 -10.759873 53.020108 -10.719673 53.280074 -10.639941 Z M 54.760134 -3.190059 C 55.280064 -3.190059 55.710213 -3.036626 56.04991 -2.72976 C 56.396977 -2.423563 56.569841 -2.026915 56.569841 -1.539815 C 56.569841 -1.060086 56.396977 -0.666788 56.04991 -0.359921 C 55.710213 -0.0463549 55.280064 0.109758 54.760134 0.109758 C 54.226803 0.109758 53.789954 -0.0463549 53.450257 -0.359921 C 53.10989 -0.673488 52.939707 -1.066786 52.939707 -1.539815 C 52.939707 -2.020215 53.10989 -2.413513 53.450257 -2.719709 C 53.789954 -3.033276 54.226803 -3.190059 54.760134 -3.190059 Z M 68.010324 -0.000123953 L 64.719887 -0.000123953 C 64.599955 -0.213188 64.493422 -0.530105 64.40029 -0.950203 C 63.799958 -0.183038 62.956411 0.20021 61.870319 0.20021 C 60.869988 0.20021 60.023091 -0.103306 59.330297 -0.709668 C 58.630133 -1.310001 58.279716 -2.066446 58.279716 -2.979675 C 58.279716 -4.126738 58.703164 -4.993066 59.550062 -5.579998 C 60.396959 -6.16693 61.626434 -6.459726 63.239827 -6.459726 L 64.260258 -6.459726 L 64.260258 -7.009807 C 64.260258 -7.983337 63.840159 -8.469767 62.999962 -8.469767 C 62.220066 -8.469767 61.830118 -8.083169 61.830118 -7.309973 L 58.539681 -7.309973 C 58.539681 -8.336434 58.97318 -9.166581 59.840177 -9.799744 C 60.706505 -10.440277 61.813368 -10.759873 63.160095 -10.759873 C 64.513523 -10.759873 65.580185 -10.433577 66.36008 -9.780313 C 67.139976 -9.11968 67.539974 -8.216502 67.560075 -7.070108 L 67.560075 -2.390063 C 67.573475 -1.423233 67.723558 -0.683538 68.010324 -0.170307 Z M 62.660265 -2.150198 C 63.066963 -2.150198 63.40666 -2.23663 63.680026 -2.410163 C 63.946691 -2.589727 64.140325 -2.790061 64.260258 -3.009825 L 64.260258 -4.70027 L 63.300128 -4.70027 C 62.153065 -4.70027 61.580203 -4.183019 61.580203 -3.149858 C 61.580203 -2.856392 61.680035 -2.616527 61.879699 -2.430264 C 62.086733 -2.24333 62.346699 -2.150198 62.660265 -2.150198 Z M 72.849833 -10.57026 L 72.849833 -0.000123953 L 69.550015 -0.000123953 L 69.550015 -10.57026 Z M 69.359732 -13.289845 C 69.359732 -13.756845 69.526565 -14.140092 69.860232 -14.440258 C 70.199929 -14.739755 70.640128 -14.889838 71.180159 -14.889838 C 71.72019 -14.889838 72.159719 -14.739755 72.500086 -14.440258 C 72.839783 -14.140092 73.009966 -13.756845 73.009966 -13.289845 C 73.009966 -12.823515 72.839783 -12.440268 72.500086 -12.140102 C 72.159719 -11.839935 71.72019 -11.689852 71.180159 -11.689852 C 70.640128 -11.689852 70.199929 -11.839935 69.860232 -12.140102 C 69.526565 -12.440268 69.359732 -12.823515 69.359732 -13.289845 Z M 69.359732 -13.289845 " transform="matrix(5.830105,0,0,5.830105,42.828608,299.754629)"/>
</g>
</svg>
